<?xml version="1.0" encoding="UTF-8"?>
<svg version="1.1" xmlns="http://www.w3.org/2000/svg" width="512" height="644">
<path d="M0 0 C1.50808812 -0.00391162 1.50808812 -0.00391162 3.04664266 -0.00790226 C4.16460151 -0.00567154 5.28256036 -0.00344082 6.43439674 -0.0011425 C7.61172013 -0.00270249 8.78904351 -0.00426248 10.00204337 -0.00586975 C13.28502368 -0.00918317 16.56794731 -0.00797039 19.85092425 -0.00488353 C23.38625779 -0.00263114 26.92158619 -0.0061084 30.45691872 -0.00886345 C37.39142359 -0.01332325 44.32591768 -0.01234335 51.26042299 -0.00945081 C56.89960843 -0.00719578 62.53879084 -0.0068847 68.17797661 -0.00797462 C69.38029158 -0.00820447 69.38029158 -0.00820447 70.60689575 -0.00843897 C72.23516118 -0.00875869 73.8634266 -0.0090829 75.49169202 -0.00941156 C90.78408314 -0.01226743 106.07646828 -0.0089786 121.36885841 -0.00361119 C134.48003248 0.00084842 147.59119769 0.00008809 160.7023716 -0.00452995 C175.92317622 -0.00988854 191.14397558 -0.01198374 206.36478102 -0.00891769 C207.99023668 -0.00859914 209.61569234 -0.00828477 211.24114799 -0.00797462 C212.44077173 -0.00774321 212.44077173 -0.00774321 213.66463029 -0.00750712 C219.28954086 -0.00664519 224.91444808 -0.00809807 230.53935814 -0.01045418 C237.40586921 -0.01326701 244.27236886 -0.01248306 251.13887863 -0.00717343 C254.63991537 -0.00455508 258.14093311 -0.00349944 261.64196968 -0.00682259 C265.44568164 -0.00956371 269.24934049 -0.00611663 273.05304909 -0.0011425 C274.69652653 -0.00448858 274.69652653 -0.00448858 276.37320554 -0.00790226 C294.71965614 0.03848098 294.71965614 0.03848098 299.71946144 3.31553841 C301.07442726 4.73950935 301.07442726 4.73950935 302.45676613 6.19224739 C302.95730507 6.70456413 303.45784401 7.21688087 303.9735508 7.74472237 C305.55047394 9.37042157 307.08881437 11.02754878 308.62864113 12.68834114 C309.67318628 13.77457078 310.72004991 14.85857586 311.76926613 15.94029427 C316.63468058 20.98702314 321.3422435 26.16031902 325.92063332 31.469347 C327.96950961 33.79714768 330.15752495 35.96317539 332.37864113 38.12584114 C335.88457155 41.59492245 339.20663376 45.12863441 342.40989113 48.87584114 C344.96050067 51.79082347 347.60995914 54.60793986 350.25364113 57.43834114 C353.99489821 61.45179495 357.5766001 65.52346354 361.00364113 69.81334114 C366.1756697 76.25486764 371.99749243 81.99185243 378.05051613 87.60240364 C382.00721539 91.89104076 382.62823288 95.66217953 382.65711403 101.39406013 C382.66827846 102.66481549 382.67944288 103.93557085 382.69094563 105.24483395 C382.69331392 106.65259776 382.695488 108.06036191 382.69748878 109.4681263 C382.70679866 110.96526907 382.71696143 112.46240674 382.72790432 113.95953846 C382.75539678 118.07405947 382.77043169 122.1885459 382.78332019 126.30313516 C382.79925439 130.73823034 382.82631623 135.17326012 382.85180092 139.60830879 C382.89973444 148.29344139 382.93640518 156.97858744 382.96881336 165.66379052 C382.99525954 172.72028045 383.02551041 179.77674459 383.05823708 186.83320808 C383.19050739 215.50864029 383.29016864 244.18411104 383.3695879 272.85973644 C383.37863104 276.12220282 383.3878066 279.3846688 383.39698982 282.64713478 C383.4760459 310.93806507 383.53093207 339.22895135 383.55657911 367.51998067 C383.56320066 374.45926759 383.57436291 381.39853831 383.58719826 388.33781624 C383.60259124 396.79367198 383.61039187 405.24949553 383.6084916 413.70536572 C383.60763211 418.01705958 383.60981045 422.32869115 383.62049484 426.64037323 C383.63011865 430.5873559 383.63034298 434.53422467 383.62311053 438.48121142 C383.6220956 439.90724575 383.62443958 441.33328734 383.63052106 442.75930905 C383.6870042 456.90700065 383.6870042 456.90700065 381.37864113 463.12584114 C378.15770187 464.19948756 375.76792446 464.28207648 372.37893391 464.32905579 C371.12533129 464.3485726 369.87172867 464.36808942 368.58013809 464.38819766 C367.19011369 464.40482373 365.80008723 464.42127831 364.41005898 464.4375782 C362.95286078 464.45792561 361.49566717 464.47860376 360.03847802 464.4995892 C356.07589372 464.55502886 352.1132531 464.60361324 348.15055718 464.6503152 C345.64642915 464.68016299 343.14232639 464.71164047 340.63822401 464.74356246 C307.06021023 465.16877349 273.48477343 465.27572663 239.90443831 465.26114155 C234.36826762 465.25880102 228.8321 465.25859372 223.29592896 465.25965691 C222.48877912 465.25981014 221.68162929 465.25996337 220.85002038 465.26012125 C219.20782787 465.26044113 217.56563537 465.26076535 215.92344286 465.26109384 C200.81945757 465.26389125 185.71547853 465.26074877 170.61149427 465.25529347 C157.71103824 465.25077908 144.81059116 465.25165004 131.91013527 465.25621223 C116.74479485 465.26157324 101.5794597 465.26366975 86.41411847 465.26059997 C84.79815336 465.26028154 83.18218825 465.25996716 81.56622314 465.25965691 C80.77198628 465.25950263 79.97774941 465.25934836 79.15944475 465.2591894 C73.61321377 465.25833263 68.06698622 465.25976777 62.52075577 465.26213646 C55.79080852 465.26494946 49.06087292 465.26416248 42.33092699 465.25885572 C38.91192299 465.25624684 35.49293837 465.25516608 32.07393456 465.25850487 C0.16958105 465.28214423 0.16958105 465.28214423 -6.62135887 464.12584114 C-8.18229719 461.00396451 -7.79915934 457.67604362 -7.82271385 454.24675179 C-7.832214 453.4151108 -7.84171415 452.58346982 -7.85150218 451.72662759 C-7.88234855 448.89260402 -7.90576979 446.05856977 -7.92897606 443.22447395 C-7.94906769 441.16323528 -7.96943375 439.10199926 -7.99004936 437.04076576 C-8.04561208 431.28416704 -8.09335648 425.52752685 -8.13886166 419.77084064 C-8.16844527 416.05239505 -8.19956684 412.33396472 -8.23093987 408.61553383 C-8.79343297 340.97932857 -8.8428921 273.3405133 -8.85879326 205.70234108 C-8.85971614 201.85636584 -8.86064888 198.0103906 -8.86159325 194.16441536 C-8.86181777 193.21039591 -8.8620423 192.25637646 -8.86227363 191.27344733 C-8.86629035 175.522833 -8.88403586 159.77226281 -8.90695277 144.02166578 C-8.93062866 127.61250598 -8.94312455 111.20336875 -8.94429469 94.7941916 C-8.94520622 85.67196588 -8.95083905 76.54980031 -8.9691143 67.42759132 C-8.98445355 59.75118725 -8.9896671 52.0748626 -8.9813762 44.39844611 C-8.97746679 40.49618688 -8.97841878 36.5940883 -8.99243355 32.69184875 C-9.0074633 28.46975783 -8.9993295 24.24803111 -8.98885155 20.02592659 C-8.99690795 18.79435192 -9.00496436 17.56277725 -9.01326489 16.29388213 C-8.91820948 0.00165547 -8.91820948 0.00165547 0 0 Z " fill="#FDFEFD" transform="translate(81.62135887145996,72.87415885925293)"/>
<path d="M0 0 C7.14206341 0.20542404 14.27881878 0.26065431 21.42351961 0.27398473 C30.05360954 0.29069719 38.68065811 0.39886745 47.30951977 0.5404793 C49.76628212 0.57562052 52.22277663 0.59538997 54.6797266 0.61212766 C84.14152559 0.87256262 84.14152559 0.87256262 91.79381657 8.61908758 C93.49223171 10.60146645 94.9744212 12.64194692 96.50280094 14.76728094 C98.15306316 16.32844233 99.83532436 17.85744562 101.56530094 19.32978094 C105.23387048 22.61781814 108.87534272 25.9340186 112.50280094 29.26728094 C116.15207265 32.62021211 119.81449692 35.9572645 123.50280094 39.26728094 C125.16960149 40.76713216 126.83625965 42.26714165 128.50280094 43.76728094 C129.00376286 44.21635808 129.50472477 44.66543523 130.02086735 45.12812078 C131.62275783 46.56624284 133.21939424 48.01002407 134.81530094 49.45478094 C136.26356266 50.75995672 136.26356266 50.75995672 137.74108219 52.09149969 C139.10813297 53.4160114 139.10813297 53.4160114 140.50280094 54.76728094 C141.88532047 56.04151922 141.88532047 56.04151922 143.29576969 57.34149969 C146.89028431 61.81258523 146.50118409 67.40348154 146.50280094 72.89228094 C146.50570133 74.01142889 146.50860172 75.13057683 146.51159 76.28363836 C146.26358576 83.30820471 145.35052033 88.07996697 140.25280094 93.07978094 C138.38139786 94.69621772 136.46783445 96.2660612 134.50280094 97.76728094 C133.90670017 98.46165761 133.3105994 99.15603429 132.69643497 99.87145269 C129.85177845 102.3299212 128.33096058 102.25815991 124.60778141 102.23725164 C122.82475117 102.24163999 122.82475117 102.24163999 121.00570011 102.246117 C119.72341526 102.22860891 118.44113041 102.21110082 117.11998844 102.19306219 C115.78203157 102.18813243 114.44406777 102.18483737 113.10610294 102.1830982 C110.29996058 102.17546054 107.49432867 102.15492299 104.68834782 102.12397039 C101.11788592 102.08462562 97.54775705 102.06639519 93.97710323 102.05666101 C90.54552118 102.04660142 87.11401702 102.02678987 83.68248844 102.00556219 C82.41234898 101.99817525 81.14220951 101.99078832 79.83358097 101.98317754 C60.93806684 101.78234248 60.93806684 101.78234248 56.26061344 98.47431219 C54.95737125 97.04151922 54.95737125 97.04151922 53.62780094 95.57978094 C52.74350407 94.63747625 51.85920719 93.69517156 50.94811344 92.72431219 C48.55250633 89.82738793 46.51897713 86.93220868 44.50280094 83.76728094 C42.25181791 100.32393492 42.25181791 100.32393492 47.33873844 115.43134344 C50.12059165 118.3993146 53.1850699 120.91162909 56.48508549 123.2820667 C65.24344971 129.72898526 72.72097726 137.83896273 80.38170719 145.51337469 C81.7209933 146.85198581 83.0604277 148.19044856 84.40000248 149.5287708 C87.1962309 152.32353143 89.99065953 155.1200758 92.7838068 157.9179157 C96.34648111 161.48628671 99.91362691 165.05014858 103.48214149 168.61267793 C106.24562094 171.37252692 109.00669336 174.13477416 111.767066 176.89773023 C113.08072001 178.21204664 114.39510428 179.52563363 115.71026134 180.83844602 C128.13354612 193.24443432 128.13354612 193.24443432 133.17786503 199.23589361 C136.00575414 202.50442419 139.28915377 205.34987191 142.46373844 208.27509344 C145.86227377 212.42885883 145.62621705 217.34358897 145.74327946 222.55390203 C145.78189846 224.22626424 145.78189846 224.22626424 145.82129765 225.93241155 C145.90612669 230.99931335 145.97123508 236.06609188 146.01769352 241.13349187 C146.0444715 243.80388373 146.09716774 246.47014521 146.16124821 249.14032781 C146.25258105 253.00349251 146.29131533 256.86413663 146.31920719 260.72821844 C146.37643703 262.50825765 146.37643703 262.50825765 146.43482304 264.32425725 C146.41582426 272.44399017 146.41582426 272.44399017 143.91243839 276.07227361 C141.86588939 278.10545575 139.7286339 279.93373745 137.50280094 281.76728094 C133.95337753 285.30970042 130.899953 289.03739802 128.31093693 293.33274114 C120.41961314 306.25666888 109.82258148 319.09663444 94.48902988 322.85977209 C71.30505733 327.67509787 46.65051081 326.30790926 23.12654269 325.82493591 C16.36645675 325.70003166 9.62073228 325.73679246 2.86095524 325.86371648 C-68.63642259 327.17227361 -68.63642259 327.17227361 -86.16771603 311.32186162 C-97.47840712 299.84110145 -103.08674197 288.05525302 -103.24719906 271.76728094 C-102.72264529 261.50920664 -101.15079621 251.6671506 -93.25842953 244.42084539 C-92.01667851 243.39590023 -90.75743042 242.39182681 -89.48255062 241.40839422 C-87.25602402 239.56792301 -85.38938036 237.56684453 -83.45813656 235.41962469 C-82.09658513 233.93095211 -80.73461355 232.44266369 -79.37219906 230.95478094 C-78.75280453 230.26481023 -78.13341 229.57483953 -77.49524593 228.86396062 C-71.23950594 222.44906629 -64.58913096 221.80210288 -55.92298031 221.57196844 C-54.5517467 221.58484387 -53.18056561 221.60804219 -51.80969906 221.64228094 C-51.09620296 221.65130437 -50.38270687 221.66032781 -49.64758968 221.66962469 C-47.93063889 221.69267101 -46.21386676 221.72851052 -44.49719906 221.76728094 C-44.46146111 218.11974825 -44.50406768 214.47697411 -44.55969906 210.82978094 C-44.54326351 209.29740789 -44.54326351 209.29740789 -44.52649593 207.73407781 C-44.70650348 199.68516914 -46.99545303 195.5304813 -52.49719906 189.76728094 C-53.26805843 188.88298406 -54.03891781 187.99868719 -54.83313656 187.08759344 C-55.50602718 186.36314031 -56.17891781 185.63868719 -56.87219906 184.89228094 C-59.9387097 181.53150918 -62.88600676 178.11696922 -65.74719906 174.57978094 C-69.40566218 170.05786935 -73.17416513 165.64952793 -76.99719906 161.26728094 C-81.49240638 156.11164031 -85.8834357 150.8921667 -90.18860531 145.57587469 C-92.91064254 142.26429302 -95.69869033 139.0142349 -98.49719906 135.76728094 C-103.59659092 129.84684169 -108.62162984 123.87468187 -113.49719906 117.76728094 C-114.01952114 117.18479085 -114.54184322 116.60230077 -115.07999325 116.00215948 C-116.91571149 113.10730309 -116.92822932 111.12103828 -117.01233578 107.7045368 C-117.04761379 106.47903615 -117.08289181 105.25353551 -117.11923885 103.99089849 C-117.14043313 102.65467047 -117.1595971 101.31840893 -117.17688656 99.98212469 C-117.18786499 99.3044712 -117.19884342 98.62681772 -117.21015453 97.92862928 C-117.26679905 94.33684777 -117.3046525 90.74541439 -117.32776546 87.15326726 C-117.35527103 83.46873514 -117.44792194 79.78893676 -117.55608082 76.10601747 C-117.62755163 73.25146627 -117.64899083 70.39801104 -117.6576643 67.54264295 C-117.67640996 65.53321339 -117.74773359 63.52449144 -117.82041073 61.51628911 C-117.7754715 55.18289972 -117.3480601 50.97289998 -112.83450413 46.24334753 C-110.46042565 43.99460192 -107.9903236 41.88379294 -105.49719906 39.76728094 C-101.46640231 35.73036427 -98.33334763 31.52367835 -95.38535976 26.63748491 C-74.23100259 -7.20387249 -35.02488865 -1.05068696 0 0 Z " fill="#60D2E1" transform="translate(247.49719905853271,159.23271906375885)"/>
<path d="M0 0 C7.14206341 0.20542404 14.27881878 0.26065431 21.42351961 0.27398473 C30.05360954 0.29069719 38.68065811 0.39886745 47.30951977 0.5404793 C49.76628212 0.57562052 52.22277663 0.59538997 54.6797266 0.61212766 C84.14152559 0.87256262 84.14152559 0.87256262 91.79381657 8.61908758 C93.49223171 10.60146645 94.9744212 12.64194692 96.50280094 14.76728094 C98.15306316 16.32844233 99.83532436 17.85744562 101.56530094 19.32978094 C105.23387048 22.61781814 108.87534272 25.9340186 112.50280094 29.26728094 C116.15207265 32.62021211 119.81449692 35.9572645 123.50280094 39.26728094 C125.16960149 40.76713216 126.83625965 42.26714165 128.50280094 43.76728094 C129.00376286 44.21635808 129.50472477 44.66543523 130.02086735 45.12812078 C131.62275783 46.56624284 133.21939424 48.01002407 134.81530094 49.45478094 C136.26356266 50.75995672 136.26356266 50.75995672 137.74108219 52.09149969 C139.10813297 53.4160114 139.10813297 53.4160114 140.50280094 54.76728094 C141.88532047 56.04151922 141.88532047 56.04151922 143.29576969 57.34149969 C146.89028431 61.81258523 146.50118409 67.40348154 146.50280094 72.89228094 C146.50570133 74.01142889 146.50860172 75.13057683 146.51159 76.28363836 C146.26358576 83.30820471 145.35052033 88.07996697 140.25280094 93.07978094 C138.38139786 94.69621772 136.46783445 96.2660612 134.50280094 97.76728094 C133.90670017 98.46165761 133.3105994 99.15603429 132.69643497 99.87145269 C129.85177845 102.3299212 128.33096058 102.25815991 124.60778141 102.23725164 C122.82475117 102.24163999 122.82475117 102.24163999 121.00570011 102.246117 C119.72341526 102.22860891 118.44113041 102.21110082 117.11998844 102.19306219 C115.78203157 102.18813243 114.44406777 102.18483737 113.10610294 102.1830982 C110.29996058 102.17546054 107.49432867 102.15492299 104.68834782 102.12397039 C101.11788592 102.08462562 97.54775705 102.06639519 93.97710323 102.05666101 C90.54552118 102.04660142 87.11401702 102.02678987 83.68248844 102.00556219 C82.41234898 101.99817525 81.14220951 101.99078832 79.83358097 101.98317754 C60.93806684 101.78234248 60.93806684 101.78234248 56.26061344 98.47431219 C54.95737125 97.04151922 54.95737125 97.04151922 53.62780094 95.57978094 C52.74350407 94.63747625 51.85920719 93.69517156 50.94811344 92.72431219 C48.55250633 89.82738793 46.51897713 86.93220868 44.50280094 83.76728094 C42.25181791 100.32393492 42.25181791 100.32393492 47.33873844 115.43134344 C50.12059165 118.3993146 53.1850699 120.91162909 56.48508549 123.2820667 C65.24344971 129.72898526 72.72097726 137.83896273 80.38170719 145.51337469 C81.7209933 146.85198581 83.0604277 148.19044856 84.40000248 149.5287708 C87.1962309 152.32353143 89.99065953 155.1200758 92.7838068 157.9179157 C96.34648111 161.48628671 99.91362691 165.05014858 103.48214149 168.61267793 C106.24562094 171.37252692 109.00669336 174.13477416 111.767066 176.89773023 C113.08072001 178.21204664 114.39510428 179.52563363 115.71026134 180.83844602 C128.13354612 193.24443432 128.13354612 193.24443432 133.17786503 199.23589361 C136.00575414 202.50442419 139.28915377 205.34987191 142.46373844 208.27509344 C145.86227377 212.42885883 145.62621705 217.34358897 145.74327946 222.55390203 C145.78189846 224.22626424 145.78189846 224.22626424 145.82129765 225.93241155 C145.90612669 230.99931335 145.97123508 236.06609188 146.01769352 241.13349187 C146.0444715 243.80388373 146.09716774 246.47014521 146.16124821 249.14032781 C146.25258105 253.00349251 146.29131533 256.86413663 146.31920719 260.72821844 C146.37643703 262.50825765 146.37643703 262.50825765 146.43482304 264.32425725 C146.41582426 272.44399017 146.41582426 272.44399017 143.91243839 276.07227361 C141.86588939 278.10545575 139.7286339 279.93373745 137.50280094 281.76728094 C133.95337753 285.30970042 130.899953 289.03739802 128.31093693 293.33274114 C120.41961314 306.25666888 109.82258148 319.09663444 94.48902988 322.85977209 C71.30505733 327.67509787 46.65051081 326.30790926 23.12654269 325.82493591 C16.36645675 325.70003166 9.62073228 325.73679246 2.86095524 325.86371648 C-68.63642259 327.17227361 -68.63642259 327.17227361 -86.16771603 311.32186162 C-97.47840712 299.84110145 -103.08674197 288.05525302 -103.24719906 271.76728094 C-102.72264529 261.50920664 -101.15079621 251.6671506 -93.25842953 244.42084539 C-92.01667851 243.39590023 -90.75743042 242.39182681 -89.48255062 241.40839422 C-87.25602402 239.56792301 -85.38938036 237.56684453 -83.45813656 235.41962469 C-82.09658513 233.93095211 -80.73461355 232.44266369 -79.37219906 230.95478094 C-78.75280453 230.26481023 -78.13341 229.57483953 -77.49524593 228.86396062 C-71.23950594 222.44906629 -64.58913096 221.80210288 -55.92298031 221.57196844 C-54.5517467 221.58484387 -53.18056561 221.60804219 -51.80969906 221.64228094 C-51.09620296 221.65130437 -50.38270687 221.66032781 -49.64758968 221.66962469 C-47.93063889 221.69267101 -46.21386676 221.72851052 -44.49719906 221.76728094 C-44.46146111 218.11974825 -44.50406768 214.47697411 -44.55969906 210.82978094 C-44.54326351 209.29740789 -44.54326351 209.29740789 -44.52649593 207.73407781 C-44.70650348 199.68516914 -46.99545303 195.5304813 -52.49719906 189.76728094 C-53.26805843 188.88298406 -54.03891781 187.99868719 -54.83313656 187.08759344 C-55.50602718 186.36314031 -56.17891781 185.63868719 -56.87219906 184.89228094 C-59.9387097 181.53150918 -62.88600676 178.11696922 -65.74719906 174.57978094 C-69.40566218 170.05786935 -73.17416513 165.64952793 -76.99719906 161.26728094 C-81.49240638 156.11164031 -85.8834357 150.8921667 -90.18860531 145.57587469 C-92.91064254 142.26429302 -95.69869033 139.0142349 -98.49719906 135.76728094 C-103.59659092 129.84684169 -108.62162984 123.87468187 -113.49719906 117.76728094 C-114.01952114 117.18479085 -114.54184322 116.60230077 -115.07999325 116.00215948 C-116.91571149 113.10730309 -116.92822932 111.12103828 -117.01233578 107.7045368 C-117.04761379 106.47903615 -117.08289181 105.25353551 -117.11923885 103.99089849 C-117.14043313 102.65467047 -117.1595971 101.31840893 -117.17688656 99.98212469 C-117.18786499 99.3044712 -117.19884342 98.62681772 -117.21015453 97.92862928 C-117.26679905 94.33684777 -117.3046525 90.74541439 -117.32776546 87.15326726 C-117.35527103 83.46873514 -117.44792194 79.78893676 -117.55608082 76.10601747 C-117.62755163 73.25146627 -117.64899083 70.39801104 -117.6576643 67.54264295 C-117.67640996 65.53321339 -117.74773359 63.52449144 -117.82041073 61.51628911 C-117.7754715 55.18289972 -117.3480601 50.97289998 -112.83450413 46.24334753 C-110.46042565 43.99460192 -107.9903236 41.88379294 -105.49719906 39.76728094 C-101.46640231 35.73036427 -98.33334763 31.52367835 -95.38535976 26.63748491 C-74.23100259 -7.20387249 -35.02488865 -1.05068696 0 0 Z M-88.74329281 33.18524969 C-89.61414894 34.06562776 -90.48500507 34.94600584 -91.38225079 35.85306203 C-104.93052172 50.09271323 -108.89656827 64.25297828 -108.68469906 83.70478094 C-108.08922167 101.89938383 -108.08922167 101.89938383 -98.70789242 116.8529743 C-97.97836361 117.48469549 -97.2488348 118.11641668 -96.49719906 118.76728094 C-95.28410915 119.97083889 -94.07477766 121.17822015 -92.87219906 122.39228094 C-92.30758968 122.93884344 -91.74298031 123.48540594 -91.16126156 124.04853094 C-88.70596816 126.58451473 -86.638272 129.37757283 -84.50501156 132.18524969 C-82.11692544 135.25630985 -79.63537765 138.2357998 -77.12219906 141.20478094 C-76.65032162 141.76230047 -76.17844418 142.31982 -75.69226742 142.89423406 C-72.7985534 146.29195684 -69.83267812 149.60825014 -66.80969906 152.89228094 C-63.02192608 157.05008503 -59.78352988 161.45414266 -56.53235531 166.03681219 C-53.16185615 170.55884464 -49.31951458 174.62816088 -45.49719906 178.76728094 C-44.24154973 180.1789428 -42.99111902 181.59527265 -41.74719906 183.01728094 C-41.23673031 183.59993719 -40.72626156 184.18259344 -40.20032406 184.78290594 C-39.63829281 185.43774969 -39.07626156 186.09259344 -38.49719906 186.76728094 C-37.65382992 187.4914118 -36.81046078 188.21554265 -35.941535 188.96161687 C-31.66897485 194.09387452 -32.70977521 201.31701076 -32.68469906 207.64228094 C-32.66153375 209.01211204 -32.63616418 210.38190775 -32.60852718 211.75165594 C-32.54974491 215.09048934 -32.51339676 218.42801403 -32.49719906 221.76728094 C-31.22235149 221.75982351 -29.94750393 221.75236608 -28.63402462 221.74468267 C-16.61291604 221.68023239 -4.59254408 221.66308881 7.42871284 221.69212282 C13.60894954 221.70553278 19.78824443 221.70234329 25.96837711 221.66107976 C31.93404709 221.62186115 37.89823205 221.62642713 43.86391354 221.66120374 C46.13846198 221.66679767 48.41310568 221.65668041 50.68751049 221.6305145 C53.87769623 221.59651138 57.06297377 221.61864646 60.25304508 221.65375555 C61.65998379 221.61924543 61.65998379 221.61924543 63.0953455 221.58403814 C67.19744345 221.68134345 69.55774148 221.87004704 72.60584164 224.76389539 C74.3680451 227.03358073 75.93199655 229.36358016 77.50280094 231.76728094 C79.60792801 233.76765851 81.75485754 235.61526661 83.99889469 237.45478094 C86.32335222 241.02901173 85.78693506 244.61991971 85.50280094 248.76728094 C84.62132389 248.70967596 83.73984684 248.65207098 82.83165836 248.59272039 C64.70506322 246.59243234 64.70506322 246.59243234 48.38292789 252.14228094 C44.98110767 255.85358675 42.82159969 260.12272905 42.00280094 265.07978094 C42.81017855 272.83281797 49.56294398 277.95268891 54.84459782 283.09784734 C57.14225268 285.41106347 59.16545913 287.90187786 61.19030094 290.45478094 C65.05262303 295.28089874 69.13690249 299.82847927 73.33873844 304.35712469 C75.50280094 306.76728094 75.50280094 306.76728094 76.73006535 308.87024724 C78.42913712 311.04398585 78.42913712 311.04398585 81.48720646 311.44629705 C89.69705263 311.64017531 94.33780806 310.58204528 100.49251652 305.08191717 C101.33895725 304.25105596 102.18539799 303.42019475 103.05748844 302.56415594 C104.42612537 301.2654154 104.42612537 301.2654154 105.82241154 299.94043767 C107.73697636 298.09656935 109.62866858 296.24401044 111.50328922 294.36103094 C114.33388134 291.5287479 117.29537052 288.85317152 120.25670719 286.15790594 C129.22533289 277.56824169 135.46854672 270.67161858 135.83315372 257.83008611 C135.68304192 253.21394685 135.28455596 248.66254677 134.76429081 244.07456243 C134.40900957 239.58102291 134.7008931 235.22280658 135.06867313 230.73764837 C135.58489717 222.40987276 134.67628992 216.54574779 129.26451969 210.00946844 C124.37046617 204.82254532 119.03297648 200.25555499 113.50280094 195.76728094 C108.9876361 191.94712966 104.73941887 188.14027036 100.87780094 183.64228094 C97.62406806 179.95584092 94.47319234 176.67244537 90.50280094 173.76728094 C89.84280094 173.76728094 89.18280094 173.76728094 88.50280094 173.76728094 C88.27116749 173.2100031 88.03953403 172.65272527 87.80088139 172.07856023 C86.15777429 169.15294847 84.11762608 167.15059949 81.73351383 164.78681219 C81.25036213 164.30497472 80.76721043 163.82313726 80.26941776 163.32669866 C78.6759834 161.73973937 77.07569422 160.15987777 75.47545719 158.57978094 C74.36398159 157.4745793 73.25302194 156.36885856 72.14255619 155.26264226 C69.22000331 152.35338103 66.29193678 149.44973851 63.36223698 146.54767644 C58.67549579 141.90407601 53.99543826 137.25376435 49.31865597 132.60013616 C47.68637846 130.97805589 46.05071587 129.35944768 44.41468143 127.74115789 C43.41016521 126.74347254 42.40575971 125.74567571 41.40148258 124.74774969 C40.5259322 123.88045232 39.65038181 123.01315496 38.7482996 122.11957586 C35.25725993 118.4625018 33.16726422 116.2582535 32.9400568 111.10077703 C32.89509571 110.17816076 32.85013462 109.25554449 32.80381107 108.30497015 C32.68197923 104.04307789 32.56851171 99.7825004 32.50743961 95.51923406 C32.46316234 93.29216762 32.38862608 91.06546921 32.28185368 88.84052312 C31.60819186 74.72630647 32.59150168 65.31340398 42.13706303 54.44705999 C43.34584375 53.14215873 44.56769537 51.84921068 45.80397892 50.57033575 C48.26664744 47.95656794 50.36172392 45.14897759 52.50280094 42.26728094 C55.36678309 38.52978423 58.2501065 34.809757 61.15905094 31.10712469 C61.79455875 30.29630437 62.43006657 29.48548406 63.08483219 28.65009344 C64.33973769 27.05015282 65.59744249 25.45240289 66.85826969 23.85712469 C67.4319025 23.12493719 68.00553532 22.39274969 68.59655094 21.63837469 C69.10895329 20.98796209 69.62135563 20.33754949 70.14928532 19.66742742 C71.50127352 17.76942522 72.48518717 15.85856951 73.50280094 13.76728094 C56.36998561 12.77334053 39.24646017 12.039742 22.0911665 11.59116971 C14.1187735 11.3770379 6.16471265 11.08610705 -1.79602718 10.5988239 C-35.77583683 8.5618545 -63.70152664 7.4206911 -88.74329281 33.18524969 Z " fill="#030505" transform="translate(247.49719905853271,159.23271906375885)"/>
<path d="M0 0 C1.50808812 -0.00391162 1.50808812 -0.00391162 3.04664266 -0.00790226 C4.16460151 -0.00567154 5.28256036 -0.00344082 6.43439674 -0.0011425 C7.61172013 -0.00270249 8.78904351 -0.00426248 10.00204337 -0.00586975 C13.28502368 -0.00918317 16.56794731 -0.00797039 19.85092425 -0.00488353 C23.38625779 -0.00263114 26.92158619 -0.0061084 30.45691872 -0.00886345 C37.39142359 -0.01332325 44.32591768 -0.01234335 51.26042299 -0.00945081 C56.89960843 -0.00719578 62.53879084 -0.0068847 68.17797661 -0.00797462 C69.38029158 -0.00820447 69.38029158 -0.00820447 70.60689575 -0.00843897 C72.23516118 -0.00875869 73.8634266 -0.0090829 75.49169202 -0.00941156 C90.78408314 -0.01226743 106.07646828 -0.0089786 121.36885841 -0.00361119 C134.48003248 0.00084842 147.59119769 0.00008809 160.7023716 -0.00452995 C175.92317622 -0.00988854 191.14397558 -0.01198374 206.36478102 -0.00891769 C207.99023668 -0.00859914 209.61569234 -0.00828477 211.24114799 -0.00797462 C212.44077173 -0.00774321 212.44077173 -0.00774321 213.66463029 -0.00750712 C219.28954086 -0.00664519 224.91444808 -0.00809807 230.53935814 -0.01045418 C237.40586921 -0.01326701 244.27236886 -0.01248306 251.13887863 -0.00717343 C254.63991537 -0.00455508 258.14093311 -0.00349944 261.64196968 -0.00682259 C265.44568164 -0.00956371 269.24934049 -0.00611663 273.05304909 -0.0011425 C274.69652653 -0.00448858 274.69652653 -0.00448858 276.37320554 -0.00790226 C294.71965614 0.03848098 294.71965614 0.03848098 299.71946144 3.31553841 C301.07442726 4.73950935 301.07442726 4.73950935 302.45676613 6.19224739 C302.95730507 6.70456413 303.45784401 7.21688087 303.9735508 7.74472237 C305.55047394 9.37042157 307.08881437 11.02754878 308.62864113 12.68834114 C309.67318628 13.77457078 310.72004991 14.85857586 311.76926613 15.94029427 C316.63468058 20.98702314 321.3422435 26.16031902 325.92063332 31.469347 C327.96950961 33.79714768 330.15752495 35.96317539 332.37864113 38.12584114 C335.88457155 41.59492245 339.20663376 45.12863441 342.40989113 48.87584114 C344.96050067 51.79082347 347.60995914 54.60793986 350.25364113 57.43834114 C353.99489821 61.45179495 357.5766001 65.52346354 361.00364113 69.81334114 C366.1756697 76.25486764 371.99749243 81.99185243 378.05051613 87.60240364 C382.00721539 91.89104076 382.62823288 95.66217953 382.65711403 101.39406013 C382.66827846 102.66481549 382.67944288 103.93557085 382.69094563 105.24483395 C382.69331392 106.65259776 382.695488 108.06036191 382.69748878 109.4681263 C382.70679866 110.96526907 382.71696143 112.46240674 382.72790432 113.95953846 C382.75539678 118.07405947 382.77043169 122.1885459 382.78332019 126.30313516 C382.79925439 130.73823034 382.82631623 135.17326012 382.85180092 139.60830879 C382.89973444 148.29344139 382.93640518 156.97858744 382.96881336 165.66379052 C382.99525954 172.72028045 383.02551041 179.77674459 383.05823708 186.83320808 C383.19050739 215.50864029 383.29016864 244.18411104 383.3695879 272.85973644 C383.37863104 276.12220282 383.3878066 279.3846688 383.39698982 282.64713478 C383.4760459 310.93806507 383.53093207 339.22895135 383.55657911 367.51998067 C383.56320066 374.45926759 383.57436291 381.39853831 383.58719826 388.33781624 C383.60259124 396.79367198 383.61039187 405.24949553 383.6084916 413.70536572 C383.60763211 418.01705958 383.60981045 422.32869115 383.62049484 426.64037323 C383.63011865 430.5873559 383.63034298 434.53422467 383.62311053 438.48121142 C383.6220956 439.90724575 383.62443958 441.33328734 383.63052106 442.75930905 C383.6870042 456.90700065 383.6870042 456.90700065 381.37864113 463.12584114 C378.15770187 464.19948756 375.76792446 464.28207648 372.37893391 464.32905579 C371.12533129 464.3485726 369.87172867 464.36808942 368.58013809 464.38819766 C367.19011369 464.40482373 365.80008723 464.42127831 364.41005898 464.4375782 C362.95286078 464.45792561 361.49566717 464.47860376 360.03847802 464.4995892 C356.07589372 464.55502886 352.1132531 464.60361324 348.15055718 464.6503152 C345.64642915 464.68016299 343.14232639 464.71164047 340.63822401 464.74356246 C307.06021023 465.16877349 273.48477343 465.27572663 239.90443831 465.26114155 C234.36826762 465.25880102 228.8321 465.25859372 223.29592896 465.25965691 C222.48877912 465.25981014 221.68162929 465.25996337 220.85002038 465.26012125 C219.20782787 465.26044113 217.56563537 465.26076535 215.92344286 465.26109384 C200.81945757 465.26389125 185.71547853 465.26074877 170.61149427 465.25529347 C157.71103824 465.25077908 144.81059116 465.25165004 131.91013527 465.25621223 C116.74479485 465.26157324 101.5794597 465.26366975 86.41411847 465.26059997 C84.79815336 465.26028154 83.18218825 465.25996716 81.56622314 465.25965691 C80.77198628 465.25950263 79.97774941 465.25934836 79.15944475 465.2591894 C73.61321377 465.25833263 68.06698622 465.25976777 62.52075577 465.26213646 C55.79080852 465.26494946 49.06087292 465.26416248 42.33092699 465.25885572 C38.91192299 465.25624684 35.49293837 465.25516608 32.07393456 465.25850487 C0.16958105 465.28214423 0.16958105 465.28214423 -6.62135887 464.12584114 C-8.18229719 461.00396451 -7.79915934 457.67604362 -7.82271385 454.24675179 C-7.832214 453.4151108 -7.84171415 452.58346982 -7.85150218 451.72662759 C-7.88234855 448.89260402 -7.90576979 446.05856977 -7.92897606 443.22447395 C-7.94906769 441.16323528 -7.96943375 439.10199926 -7.99004936 437.04076576 C-8.04561208 431.28416704 -8.09335648 425.52752685 -8.13886166 419.77084064 C-8.16844527 416.05239505 -8.19956684 412.33396472 -8.23093987 408.61553383 C-8.79343297 340.97932857 -8.8428921 273.3405133 -8.85879326 205.70234108 C-8.85971614 201.85636584 -8.86064888 198.0103906 -8.86159325 194.16441536 C-8.86181777 193.21039591 -8.8620423 192.25637646 -8.86227363 191.27344733 C-8.86629035 175.522833 -8.88403586 159.77226281 -8.90695277 144.02166578 C-8.93062866 127.61250598 -8.94312455 111.20336875 -8.94429469 94.7941916 C-8.94520622 85.67196588 -8.95083905 76.54980031 -8.9691143 67.42759132 C-8.98445355 59.75118725 -8.9896671 52.0748626 -8.9813762 44.39844611 C-8.97746679 40.49618688 -8.97841878 36.5940883 -8.99243355 32.69184875 C-9.0074633 28.46975783 -8.9993295 24.24803111 -8.98885155 20.02592659 C-8.99690795 18.79435192 -9.00496436 17.56277725 -9.01326489 16.29388213 C-8.91820948 0.00165547 -8.91820948 0.00165547 0 0 Z M7.37864113 16.12584114 C7.37864113 159.01584114 7.37864113 301.90584114 7.37864113 449.12584114 C126.17864113 449.12584114 244.97864113 449.12584114 367.37864113 449.12584114 C367.37864113 334.61584114 367.37864113 220.10584114 367.37864113 102.12584114 C339.65864113 101.79584114 311.93864113 101.46584114 283.37864113 101.12584114 C281.66354719 72.82679115 280.9237514 44.47157508 280.37864113 16.12584114 C190.28864113 16.12584114 100.19864113 16.12584114 7.37864113 16.12584114 Z " fill="#060606" transform="translate(81.62135887145996,72.87415885925293)"/>
<path d="M0 0 C7.9746657 0.47938677 15.95131698 0.70274763 23.93691492 0.91155303 C40.29399387 1.34465358 56.62197473 2.07745621 72.95752931 3.02514446 C71.09580836 6.16365559 69.20937941 9.12430004 66.95362306 11.99389446 C66.38313233 12.72293987 65.81264161 13.45198528 65.22486329 14.20312297 C64.31909547 15.35252361 64.31909547 15.35252361 63.39502931 16.52514446 C62.12393628 18.14863909 60.85310415 19.77233801 59.58252931 21.39623821 C58.96120118 22.18885051 58.33987306 22.98146282 57.69971681 23.79809368 C54.66041013 27.68326121 51.64285984 31.58292113 48.69751954 35.54003704 C46.81933783 38.00515878 44.82256446 40.25823777 42.68433595 42.50024211 C32.64794562 53.49183489 30.94348489 62.94267906 31.37256837 77.58349407 C31.45801187 80.85612742 31.41374285 84.10965157 31.35596681 87.38256633 C31.22665054 100.03626149 31.22665054 100.03626149 37.00062013 110.86564434 C38.48185809 112.34264078 39.9995042 113.71400622 41.60401368 115.05517375 C42.38067384 115.70526409 43.15733399 116.35535442 43.95752931 117.02514446 C43.95752931 117.68514446 43.95752931 118.34514446 43.95752931 119.02514446 C39.37196159 119.92178118 35.0405071 120.14147637 30.37159181 120.12280071 C29.66980805 120.12138576 28.9680243 120.11997081 28.24497437 120.11851299 C26.02411426 120.11295736 23.80335847 120.10041338 21.58252931 120.08764446 C20.06820786 120.08262371 18.55388481 120.07806181 17.03956056 120.07397258 C13.34551678 120.06300253 9.65153324 120.04576894 5.95752931 120.02514446 C5.95752931 117.38514446 5.95752931 114.74514446 5.95752931 112.02514446 C-18.13247069 112.02514446 -42.22247069 112.02514446 -67.04247069 112.02514446 C-67.04247069 114.00514446 -67.04247069 115.98514446 -67.04247069 118.02514446 C-61.43247069 118.35514446 -55.82247069 118.68514446 -50.04247069 119.02514446 C-50.04247069 119.68514446 -50.04247069 120.34514446 -50.04247069 121.02514446 C-52.43838107 121.05226797 -54.83398026 121.07204266 -57.22997069 121.08764446 C-57.90350585 121.09602336 -58.57704101 121.10440227 -59.27098632 121.11303508 C-63.01593644 121.13130313 -66.38619953 120.76709345 -70.04247069 120.02514446 C-71.03247069 120.52014446 -71.03247069 120.52014446 -72.04247069 121.02514446 C-72.04247069 120.36514446 -72.04247069 119.70514446 -72.04247069 119.02514446 C-72.80172851 119.25330852 -73.56098632 119.48147258 -74.34325194 119.71655071 C-75.83405272 120.14774211 -75.83405272 120.14774211 -77.35497069 120.58764446 C-78.34110351 120.87768352 -79.32723632 121.16772258 -80.34325194 121.46655071 C-83.04247069 122.02514446 -83.04247069 122.02514446 -86.04247069 121.02514446 C-87.62059569 119.20483196 -87.62059569 119.20483196 -89.29247069 116.90014446 C-91.57341124 113.86049106 -93.86380697 111.09440475 -96.60497069 108.46264446 C-108.12823569 97.17346459 -108.80912597 85.50101319 -109.10556197 69.81074131 C-108.86663952 49.65123211 -103.45494809 36.71468182 -89.30028319 22.43139446 C-87.95897527 21.05279687 -87.95897527 21.05279687 -86.59057021 19.64634883 C-62.09854364 -4.54830889 -32.29363503 -1.97671647 0 0 Z " fill="#8DC7EA" transform="translate(248.04247069358826,169.97485554218292)"/>
<path d="M0 0 C1.1325824 -0.00116821 2.26516479 -0.00233643 3.43206787 -0.00354004 C7.1558523 0.00201004 10.87638824 0.06412541 14.59960938 0.12695312 C17.18890636 0.14188237 19.77822601 0.15326615 22.36755371 0.16125488 C28.47360996 0.18862307 34.57833621 0.25159305 40.68389273 0.3320508 C47.63904193 0.42170014 54.59424852 0.46551303 61.54983234 0.50561428 C75.84829356 0.58906949 90.14578533 0.72963815 104.44335938 0.90820312 C103.5064164 2.17674668 102.56675305 3.44328121 101.62597656 4.70898438 C101.10299988 5.41450439 100.58002319 6.12002441 100.04119873 6.84692383 C97.7790073 9.76524496 95.31308222 12.30295389 92.69335938 14.90820312 C92.21253906 15.39675781 91.73171875 15.8853125 91.23632812 16.38867188 C87.69707961 19.90820312 87.69707961 19.90820312 85.44335938 19.90820312 C84.31368249 34.35914472 84.31368249 34.35914472 88.49023438 47.66992188 C90.99938193 50.33494071 93.58805135 52.62310564 96.44335938 54.90820312 C97.66323288 56.23328133 98.85416319 57.58595783 100.00585938 58.97070312 C103.40157265 62.89069517 106.90809592 66.70483235 110.42773438 70.51367188 C112.40902723 72.86741706 113.89411958 75.25814423 115.44335938 77.90820312 C99.46591292 78.52048824 83.4917177 78.97634775 67.50539589 79.2553196 C60.07881446 79.38841371 52.65966196 79.56983209 45.23779297 79.86962891 C-10.09539745 82.0601364 -10.09539745 82.0601364 -24.15518188 69.15023804 C-32.89264902 60.20308155 -38.37006192 51.33371471 -38.80664062 38.40820312 C-38.22203699 31.32930328 -36.99575301 26.00484661 -31.99414062 20.84570312 C-30.20600403 19.5001995 -28.39460864 18.18479471 -26.55664062 16.90820312 C-25.3032677 15.57413013 -24.09048335 14.20016395 -22.93164062 12.78320312 C-22.41199486 12.18769402 -21.89234909 11.59218491 -21.35695648 10.97863007 C-20.17041602 9.61406654 -19.01136907 8.22502938 -17.88333893 6.81171417 C-12.38519557 0.48494767 -8.16436913 -0.22238854 0 0 Z " fill="#49E1E3" transform="translate(194.556640625,392.091796875)"/>
<path d="M0 0 C0.99 0.33 1.98 0.66 3 1 C4.32 1 5.64 1 7 1 C9.37890734 1.01149572 11.75781344 1.0232474 14.13671875 1.03515625 C16.25496258 1.04254367 18.37320676 1.04897146 20.49145508 1.05493164 C21.96086329 1.05999575 23.4302664 1.06684462 24.8996582 1.07543945 C27.02035755 1.08750636 29.14099147 1.09322503 31.26171875 1.09765625 C32.52975342 1.10289307 33.79778809 1.10812988 35.10424805 1.11352539 C37.89399154 1.33229639 37.89399154 1.33229639 39 0 C42.00928757 -0.1367858 44.67457778 -0.06973333 47.625 0.5625 C50.23050035 1.04246059 51.47387373 0.66868048 54 0 C57.38330736 -0.12302936 60.42911618 -0.11677169 63.75 0.5625 C66.15493756 1.22140353 66.15493756 1.22140353 69 0 C69.804375 0.165 70.60875 0.33 71.4375 0.5 C74.10184672 1.01987253 75.4544487 0.78999868 78 0 C78.66 0 79.32 0 80 0 C80.774646 -0.05760498 81.54929199 -0.11520996 82.34741211 -0.17456055 C104.88186518 -1.80629455 104.88186518 -1.80629455 112 3.9375 C117.66630339 11.28027994 117.30932495 19.81261808 117.03662109 28.76245117 C116.94400175 33.46885475 117.14787867 37.97523903 117.68920898 42.6496582 C118.83360071 54.54225436 118.71199063 63.55884053 110.91172791 73.10386658 C107.36817122 76.93417644 103.68343475 80.54461306 99.82470703 84.05664062 C97.34061327 86.32485138 94.9498255 88.64017973 92.57819939 91.02238083 C90.27514888 93.32068251 87.91473283 95.55735737 85.5546875 97.796875 C84.70824677 98.62773621 83.86180603 99.45859741 82.98971558 100.31463623 C76.8394638 105.81078165 72.26760804 106.85545004 64.0614624 106.5607605 C60.08648432 105.83267359 58.22821005 104.4935038 55.75708008 101.37792969 C55.07295044 100.38647949 55.07295044 100.38647949 54.375 99.375 C53.30395213 97.99174851 52.23232384 96.60894627 51.16015625 95.2265625 C50.63695801 94.52047852 50.11375977 93.81439453 49.57470703 93.08691406 C47.13134242 89.84879303 44.47207262 86.8106057 41.8125 83.75 C41.32475098 83.17193604 40.83700195 82.59387207 40.33447266 81.99829102 C37.99739796 79.23511766 35.62719174 76.5856255 33.02734375 74.06640625 C25.35312831 66.45695213 25.35312831 66.45695213 24.6875 60.5 C25.43743324 54.72551405 27.95196855 49.76277844 32.4921875 46.0625 C41.87684244 40.50745761 57.53696532 43.31623528 68 44 C68.51396782 39.07447505 68.7576309 36.02802676 65.734375 31.92578125 C64.74953125 31.06339844 63.7646875 30.20101563 62.75 29.3125 C57.16054777 24.32191765 57.16054777 24.32191765 55.44451904 20.881073 C52.76216239 17.71968821 52.47427323 17.56513586 48.60870361 17.24050903 C46.76973927 17.20537649 44.92996764 17.20336047 43.09082031 17.22705078 C42.08561844 17.21642105 41.08041656 17.20579132 40.04475403 17.19483948 C36.72203861 17.16673334 33.40090547 17.18086292 30.078125 17.1953125 C27.77454233 17.18406568 25.47097112 17.17018651 23.16741943 17.15377808 C17.10429093 17.1176739 11.04166599 17.11737506 4.97845459 17.12445068 C-1.20846622 17.12536221 -7.39519691 17.09252473 -13.58203125 17.0625 C-25.72140688 17.00857543 -37.86051787 16.9924635 -50 17 C-50 12.05 -50 7.1 -50 2 C-41.375 1 -41.375 1 -38 1 C-36.91525391 0.98259766 -36.91525391 0.98259766 -35.80859375 0.96484375 C-35.02613281 0.95582031 -34.24367187 0.94679688 -33.4375 0.9375 C-32.25994141 0.92009766 -32.25994141 0.92009766 -31.05859375 0.90234375 C-29 1 -29 1 -27 2 C-26.34 1.67 -25.68 1.34 -25 1 C-23.19796782 0.92710963 -21.39322533 0.91633734 -19.58984375 0.9375 C-18.51798828 0.94523437 -17.44613281 0.95296875 -16.34179688 0.9609375 C-15.21837891 0.97382813 -14.09496094 0.98671875 -12.9375 1 C-10.71749531 1.02538599 -8.49743565 1.04646081 -6.27734375 1.0625 C-4.79609009 1.07990234 -4.79609009 1.07990234 -3.28491211 1.09765625 C-1.03403803 1.25946067 -1.03403803 1.25946067 0 0 Z " fill="#48E0E3" transform="translate(265,364)"/>
<path d="M0 0 C24.09 0 48.18 0 73 0 C73 2.64 73 5.28 73 8 C73.84473877 7.83628906 74.68947754 7.67257812 75.55981445 7.50390625 C79.11758028 6.98277726 82.4489669 6.90293537 86.04296875 6.9375 C86.69324539 6.94128662 87.34352203 6.94507324 88.01350403 6.94897461 C90.07157333 6.96109445 92.12949584 6.97973123 94.1875 7 C96.91019929 7.02660928 99.63265479 7.04650697 102.35546875 7.0625 C104.15987427 7.07990234 104.15987427 7.07990234 106.00073242 7.09765625 C109.05228997 7.1410075 109.05228997 7.1410075 112 6 C116.13638802 10.08707305 120.26625792 14.18057878 124.39013672 18.28027344 C125.79492308 19.67498149 127.20149637 21.06789204 128.60986328 22.45898438 C130.63001713 24.45497031 132.64372656 26.4572619 134.65625 28.4609375 C135.6077594 29.39696304 135.6077594 29.39696304 136.57849121 30.35189819 C138.09076139 31.8637749 139.5509829 33.42739652 141 35 C141 35.66 141 36.32 141 37 C139.865625 36.835 138.73125 36.67 137.5625 36.5 C133.0243008 35.92768714 128.56609026 35.92275411 124 36 C120 36 120 36 117 35 C116.01 35.99 116.01 35.99 115 37 C113.04907579 36.80160093 111.09768462 36.59147165 109.16015625 36.2890625 C106.74375693 35.91710418 106.74375693 35.91710418 103.25 36 C100 36 100 36 97.8125 35.4375 C96.01822712 34.84858416 96.01822712 34.84858416 94.32896423 35.46655273 C91.15991927 36.19241977 88.17510722 36.11103155 84.92407227 36.09765625 C84.21950897 36.09619598 83.51494568 36.09473572 82.78903198 36.0932312 C81.26288207 36.08943298 79.73673654 36.08332461 78.21060371 36.07516479 C75.79354598 36.06237907 73.37654325 36.05587977 70.9594574 36.05102539 C64.95634118 36.03766702 58.95327735 36.01346804 52.95019531 35.98962402 C47.87610607 35.96987956 42.80203634 35.95424404 37.72791862 35.94406128 C35.3498725 35.93759106 32.97190698 35.92508259 30.59388733 35.91235352 C29.13103302 35.90871969 27.66817797 35.90536812 26.20532227 35.90234375 C24.93165298 35.89710693 23.6579837 35.89187012 22.34571838 35.88647461 C19.40820983 35.98614881 16.85104387 36.33654602 14 37 C10.65928831 37.50425837 8.22093181 37.71423164 5.23046875 35.96484375 C-3.09437539 29.11218258 -11.81894978 19.4895025 -17 10 C-9.11735941 6.53789731 -9.11735941 6.53789731 -4 8 C-3.01 7.67 -2.02 7.34 -1 7 C0.67340127 7.29768624 2.33941944 7.6375623 4 8 C6.26835684 8.21540083 8.53961354 8.40179086 10.8125 8.5625 C11.97394531 8.64628906 13.13539063 8.73007812 14.33203125 8.81640625 C15.21246094 8.87699219 16.09289062 8.93757813 17 9 C17 8.34 17 7.68 17 7 C16.1646875 7.01740234 16.1646875 7.01740234 15.3125 7.03515625 C10.10221657 7.09676433 5.1562049 6.74999344 0 6 C0 4.02 0 2.04 0 0 Z " fill="#75CDE6" transform="translate(181,282)"/>
<path d="M0 0 C5.28891286 2.55629636 9.4850141 6.27208596 14 10 C15.49273437 11.22783203 15.49273437 11.22783203 17.015625 12.48046875 C24.40404733 18.61447046 31.51318892 25.01927652 38.453125 31.65625 C40.63397428 33.74064316 42.84614696 35.73538186 45.171875 37.65625 C50.02964369 41.88278321 52.66161995 44.86399936 53.1875 51.4375 C52.3684476 58.16941593 50.22190645 63.58992284 44.83627319 67.98733521 C37.89770171 71.81380672 27.92097908 70.07819258 20.3125 69.75 C18.25596715 69.70331588 16.19931502 69.66160779 14.14257812 69.625 C9.2786593 69.52432203 4.42351781 69.34016556 -0.43591309 69.11108398 C-2.75954113 69.0104174 -5.08007626 68.94811602 -7.40527344 68.90039062 C-8.64180664 68.85591797 -9.87833984 68.81144531 -11.15234375 68.765625 C-12.18480225 68.73758789 -13.21726074 68.70955078 -14.28100586 68.68066406 C-20.06580286 67.23251698 -22.81472988 61.65632998 -26 57 C-28.17768407 54.64204406 -30.40335675 52.34834167 -32.6640625 50.0703125 C-34 48 -34 48 -33.96484375 45.5859375 C-32.75856612 42.35291811 -31.10518052 40.1924112 -28.9375 37.5 C-28.03274064 36.36025806 -27.12918395 35.21956081 -26.2265625 34.078125 C-25.46714355 33.12389648 -25.46714355 33.12389648 -24.69238281 32.15039062 C-21.34247432 27.89389986 -18.08636908 23.56505434 -14.8125 19.25 C-9.91355806 12.80280474 -4.98514784 6.38083426 0 0 Z " fill="#8EC8EC" transform="translate(330,181)"/>
<path d="M0 0 C0.33 0 0.66 0 1 0 C0.97268799 1.23975586 0.94537598 2.47951172 0.91723633 3.75683594 C0.82961892 8.40913522 0.81583489 13.05936421 0.82299805 17.71240234 C0.81607303 19.71614891 0.78980076 21.7199345 0.74291992 23.72314453 C0.14969039 37.15630206 0.14969039 37.15630206 6.01823425 48.7131958 C7.50828122 50.19983813 9.0354927 51.59499502 10.63549805 52.96191406 C11.41578369 53.63448242 12.19606934 54.30705078 13 55 C13 55.66 13 56.32 13 57 C8.41443228 57.89663672 4.0829778 58.11633191 -0.5859375 58.09765625 C-1.28772125 58.0962413 -1.989505 58.09482635 -2.71255493 58.09336853 C-4.93341504 58.0878129 -7.15417084 58.07526892 -9.375 58.0625 C-10.88932145 58.05747926 -12.4036445 58.05291736 -13.91796875 58.04882812 C-17.61201252 58.03785807 -21.30599606 58.02062449 -25 58 C-25 55.36 -25 52.72 -25 50 C-49.09 50 -73.18 50 -98 50 C-98 51.98 -98 53.96 -98 56 C-92.39 56.33 -86.78 56.66 -81 57 C-81 57.66 -81 58.32 -81 59 C-83.39591038 59.02712351 -85.79150957 59.0468982 -88.1875 59.0625 C-88.86103516 59.07087891 -89.53457031 59.07925781 -90.22851562 59.08789062 C-93.97346575 59.10615867 -97.34372883 58.74194899 -101 58 C-101.99 58.495 -101.99 58.495 -103 59 C-103 58.34 -103 57.68 -103 57 C-103.75925781 57.22816406 -104.51851562 57.45632813 -105.30078125 57.69140625 C-106.79158203 58.12259766 -106.79158203 58.12259766 -108.3125 58.5625 C-109.29863281 58.85253906 -110.28476563 59.14257812 -111.30078125 59.44140625 C-114 60 -114 60 -117 59 C-118.578125 57.1796875 -118.578125 57.1796875 -120.25 54.875 C-122.53094055 51.8353466 -124.82133628 49.06926029 -127.5625 46.4375 C-136.62771692 37.51584986 -136.62771692 37.51584986 -137.37109375 32.4921875 C-137.3745411 30.29277833 -137.27263662 28.18109299 -137 26 C-136.26394531 26.09539062 -135.52789062 26.19078125 -134.76953125 26.2890625 C-133.30580078 26.45535156 -133.30580078 26.45535156 -131.8125 26.625 C-130.84957031 26.74101562 -129.88664063 26.85703125 -128.89453125 26.9765625 C-125.73964827 27.00210811 -123.86353237 26.23828427 -121 25 C-118.1875 25.375 -118.1875 25.375 -116 26 C-115.67 25.01 -115.34 24.02 -115 23 C-115 24.32 -115 25.64 -115 27 C-103.44759338 26.89256334 -91.89525014 26.7799431 -80.3429594 26.66066074 C-74.97906753 26.60544011 -69.61517019 26.55202141 -64.2512207 26.50268555 C-59.07704169 26.45502942 -53.90292959 26.40268604 -48.72883034 26.34705925 C-46.75244622 26.32664138 -44.77604376 26.30792735 -42.7996273 26.29092598 C-40.03651661 26.2668695 -37.27353255 26.2368165 -34.51049805 26.20532227 C-33.68906815 26.1995668 -32.86763824 26.19381134 -32.02131653 26.18788147 C-28.76485528 26.14554734 -26.11067033 26.03689011 -23 25 C-23 25.66 -23 26.32 -23 27 C-22.01 26.67 -21.02 26.34 -20 26 C-16.7053432 25.93127183 -13.42353792 26.00252946 -10.12890625 26.0625 C-7.49494341 26.00988651 -5.49867931 25.72854431 -3 25 C-2.34 25 -1.68 25 -1 25 C-0.67 16.75 -0.34 8.5 0 0 Z " fill="#7EC7E4" transform="translate(279,232)"/>
<path d="M0 0 C0.99 0.33 1.98 0.66 3 1 C4.32 1 5.64 1 7 1 C9.37890734 1.01149572 11.75781344 1.0232474 14.13671875 1.03515625 C16.25496258 1.04254367 18.37320676 1.04897146 20.49145508 1.05493164 C21.96086329 1.05999575 23.4302664 1.06684462 24.8996582 1.07543945 C27.02035755 1.08750636 29.14099147 1.09322503 31.26171875 1.09765625 C32.52975342 1.10289307 33.79778809 1.10812988 35.10424805 1.11352539 C37.89399154 1.33229639 37.89399154 1.33229639 39 0 C42.00928757 -0.1367858 44.67457778 -0.06973333 47.625 0.5625 C50.23050035 1.04246059 51.47387373 0.66868048 54 0 C57.38330736 -0.12302936 60.42911618 -0.11677169 63.75 0.5625 C66.15493756 1.22140353 66.15493756 1.22140353 69 0 C69.804375 0.165 70.60875 0.33 71.4375 0.5 C74.10184672 1.01987253 75.4544487 0.78999868 78 0 C78.66 0 79.32 0 80 0 C80.774646 -0.05760498 81.54929199 -0.11520996 82.34741211 -0.17456055 C104.89115816 -1.80696746 104.89115816 -1.80696746 112.0625 4.125 C118.56355426 12.26740954 116.92987558 23.17193041 116 33 C109.25 33.125 109.25 33.125 107 32 C106.67 32.66 106.34 33.32 106 34 C105.34 33.34 104.68 32.68 104 32 C103.47535156 32.32484375 102.95070313 32.6496875 102.41015625 32.984375 C99.30867798 34.29131884 96.79498163 34.26527864 93.4375 34.25 C92.30183594 34.25515625 91.16617188 34.2603125 89.99609375 34.265625 C87 34 87 34 84 32 C81.97821315 32.59734611 79.98014432 33.27648573 78 34 C73.15040935 35.02096645 70.43008725 35.20831097 66 33 C63.68359375 31.046875 63.68359375 31.046875 61.4375 28.75 C60.69371094 28.00234375 59.94992187 27.2546875 59.18359375 26.484375 C57 24 57 24 55.48284912 20.89303589 C52.77136378 17.73359123 52.48582495 17.56521768 48.60870361 17.24050903 C46.76973927 17.20537649 44.92996764 17.20336047 43.09082031 17.22705078 C42.08561844 17.21642105 41.08041656 17.20579132 40.04475403 17.19483948 C36.72203861 17.16673334 33.40090547 17.18086292 30.078125 17.1953125 C27.77454233 17.18406568 25.47097112 17.17018651 23.16741943 17.15377808 C17.10429093 17.1176739 11.04166599 17.11737506 4.97845459 17.12445068 C-1.20846622 17.12536221 -7.39519691 17.09252473 -13.58203125 17.0625 C-25.72140688 17.00857543 -37.86051787 16.9924635 -50 17 C-50 12.05 -50 7.1 -50 2 C-41.375 1 -41.375 1 -38 1 C-36.91525391 0.98259766 -36.91525391 0.98259766 -35.80859375 0.96484375 C-35.02613281 0.95582031 -34.24367187 0.94679688 -33.4375 0.9375 C-32.25994141 0.92009766 -32.25994141 0.92009766 -31.05859375 0.90234375 C-29 1 -29 1 -27 2 C-26.34 1.67 -25.68 1.34 -25 1 C-23.19796782 0.92710963 -21.39322533 0.91633734 -19.58984375 0.9375 C-18.51798828 0.94523437 -17.44613281 0.95296875 -16.34179688 0.9609375 C-15.21837891 0.97382813 -14.09496094 0.98671875 -12.9375 1 C-10.71749531 1.02538599 -8.49743565 1.04646081 -6.27734375 1.0625 C-4.79609009 1.07990234 -4.79609009 1.07990234 -3.28491211 1.09765625 C-1.03403803 1.25946067 -1.03403803 1.25946067 0 0 Z " fill="#57DAE4" transform="translate(265,364)"/>
<path d="M0 0 C0.99 0.33 1.98 0.66 3 1 C3.99 0.67 4.98 0.34 6 0 C6.99 0.495 6.99 0.495 8 1 C9.41594189 1.04531014 10.83385752 1.03853449 12.25 1 C15.14805557 0.95340747 17.49705895 1.09204795 20.375 1.625 C23.22716786 2.33012883 23.22716786 2.33012883 26 0 C27.67540664 0.64438717 29.34183216 1.31246699 31 2 C32.3401642 1.69528898 33.67300484 1.35773276 35 1 C36.62212299 0.88489886 38.24884784 0.82516474 39.875 0.8125 C41.10863281 0.79123047 41.10863281 0.79123047 42.3671875 0.76953125 C49.31237589 1.37749285 52.79631464 4.25237434 57.375 9.125 C57.92027344 9.68832031 58.46554687 10.25164062 59.02734375 10.83203125 C60.3609075 12.21238671 61.68177679 13.60498709 63 15 C62.67 15.99 62.34 16.98 62 18 C60.948125 17.814375 59.89625 17.62875 58.8125 17.4375 C55.36174976 17.04151227 53.30963541 17.28440316 50 18 C47.9375 17.5625 47.9375 17.5625 46 17 C44.68 17 43.36 17 42 17 C41.34 16.67 40.68 16.34 40 16 C40 16.66 40 17.32 40 18 C39.31292969 17.91621094 38.62585938 17.83242188 37.91796875 17.74609375 C37.01691406 17.64425781 36.11585938 17.54242188 35.1875 17.4375 C34.29417969 17.33308594 33.40085937 17.22867187 32.48046875 17.12109375 C29.86624428 16.84341291 29.86624428 16.84341291 27 18 C25.33541327 18.09308544 23.66718003 18.12996185 22 18.125 C20.700625 18.12886719 20.700625 18.12886719 19.375 18.1328125 C17 18 17 18 14 17 C12.515 17.495 12.515 17.495 11 18 C9.33385392 18.04165365 7.66614608 18.04165365 6 18 C5.01 18 4.02 18 3 18 C0.43549931 17.56215842 -1.66896407 17.16551796 -4 16 C-4.66 16.66 -5.32 17.32 -6 18 C-8.68839385 18.26991906 -11.29141936 18.08737357 -14 18 C-14 17.34 -14 16.68 -14 16 C-14.928125 16.515625 -15.85625 17.03125 -16.8125 17.5625 C-20 19 -20 19 -23 18 C-24.99956611 17.95834237 -27.00043389 17.95834237 -29 18 C-32.13035556 18 -35.26031606 17.98209845 -38.390625 17.96484375 C-40.33772668 17.95791104 -42.28482862 17.9510061 -44.23193359 17.94506836 C-46.22885732 17.93757929 -48.22575926 17.92487224 -50.22265625 17.91210938 C-51.49496094 17.90888672 -52.76726562 17.90566406 -54.078125 17.90234375 C-55.23731445 17.89710693 -56.39650391 17.89187012 -57.59082031 17.88647461 C-61.12391069 18.00412622 -64.51218914 18.43840804 -68 19 C-68.33 18.34 -68.66 17.68 -69 17 C-69.58007812 17.22429687 -70.16015625 17.44859375 -70.7578125 17.6796875 C-73 18 -73 18 -74.9296875 16.8828125 C-79.87965821 12.4099474 -83.57430718 7.72246414 -87 2 C-86.08476562 2.01160156 -85.16953125 2.02320313 -84.2265625 2.03515625 C-83.03804687 2.04417969 -81.84953125 2.05320312 -80.625 2.0625 C-78.84996094 2.07990234 -78.84996094 2.07990234 -77.0390625 2.09765625 C-74.08078479 2.21466593 -74.08078479 2.21466593 -72 1 C-69.72205182 0.93696716 -67.44211426 0.94254525 -65.16357422 0.97827148 C-64.46102509 0.98787903 -63.75847595 0.99748657 -63.03463745 1.00738525 C-60.70788689 1.04041839 -58.38132157 1.08073412 -56.0546875 1.12109375 C-54.44329485 1.14539066 -52.83189531 1.16923443 -51.2204895 1.19264221 C-46.97564861 1.25552587 -42.73092945 1.32458035 -38.48620605 1.39489746 C-34.1562251 1.46554228 -29.82615771 1.53038228 -25.49609375 1.59570312 C-16.99730014 1.72477064 -8.49862634 1.8603539 0 2 C0 1.34 0 0.68 0 0 Z " fill="#6CD3E7" transform="translate(273,316)"/>
<path d="M0 0 C4.03508571 2.01754286 6.17538418 3.93907474 9.3125 7.125 C9.80250488 7.6214502 10.29250977 8.11790039 10.79736328 8.62939453 C14.00266534 11.90237701 17.02345784 15.28840703 19.9921875 18.7734375 C22.71764689 21.7958341 25.60685214 24.63896661 28.5 27.5 C32.53116685 31.49099662 36.44583322 35.49945411 40.11328125 39.83203125 C41.7030414 41.65877428 43.32481578 43.4328129 44.98046875 45.19921875 C45.51792725 45.77349609 46.05538574 46.34777344 46.60913086 46.93945312 C47.6780413 48.07818229 48.75031222 49.21376926 49.82641602 50.34570312 C50.32197998 50.87486328 50.81754395 51.40402344 51.328125 51.94921875 C51.7705957 52.41674561 52.21306641 52.88427246 52.66894531 53.3659668 C54.33683451 55.41350575 55.64127621 57.73546035 57 60 C38.19 60 19.38 60 0 60 C0 40.2 0 20.4 0 0 Z " fill="#FCFDFC" transform="translate(378,100)"/>
<path d="M0 0 C1.23488159 -0.00095673 2.46976318 -0.00191345 3.74206543 -0.00289917 C6.34415742 -0.00357746 8.94625114 -0.00174771 11.54833984 0.00244141 C15.51794252 0.00779455 19.48743207 0.00248444 23.45703125 -0.00390625 C25.99218775 -0.00324541 28.52734418 -0.00196412 31.0625 0 C32.2429187 -0.00202423 33.4233374 -0.00404846 34.63952637 -0.00613403 C40.53280216 0.01053018 46.20443928 0.23452738 52.03125 1.1328125 C52.65625 2.9453125 52.65625 2.9453125 53.03125 5.1328125 C52.37125 6.1228125 51.71125 7.1128125 51.03125 8.1328125 C48.15345764 8.5070343 48.15345764 8.5070343 44.42602539 8.50512695 C43.40869072 8.51060295 43.40869072 8.51060295 42.37080383 8.51618958 C40.12325185 8.52431196 37.87641715 8.51067041 35.62890625 8.49609375 C34.06953431 8.49557528 32.5101617 8.49609247 30.95079041 8.49760437 C27.67974106 8.49751457 24.40893776 8.48707019 21.13793945 8.46899414 C16.94339425 8.44632532 12.74920935 8.44575857 8.55461979 8.45251179 C5.33329564 8.45585261 2.11205372 8.44921925 -1.10925484 8.43938255 C-2.6558241 8.4355308 -4.20240251 8.43438224 -5.74897575 8.4359684 C-7.91087147 8.43633902 -10.07230459 8.42371974 -12.23413086 8.4074707 C-13.4649791 8.40286331 -14.69582733 8.39825592 -15.963974 8.39350891 C-18.96875 8.1328125 -18.96875 8.1328125 -21.96875 6.1328125 C-21.63875 4.4828125 -21.30875 2.8328125 -20.96875 1.1328125 C-13.96145714 0.0525394 -7.08164242 -0.01214389 0 0 Z " fill="#0B1517" transform="translate(219.96875,309.8671875)"/>
<path d="M0 0 C1.25329102 -0.00095673 2.50658203 -0.00191345 3.79785156 -0.00289917 C7.10857923 -0.00374953 10.41925912 0.0002439 13.72998047 0.00585938 C15.74838769 0.00781094 17.76675142 0.00586492 19.78515625 0.00244141 C23.69012439 -0.0037615 27.59502912 -0.00298094 31.5 0 C33.29099121 -0.00303635 33.29099121 -0.00303635 35.11816406 -0.00613403 C41.41379202 0.01140488 47.5086309 0.29703342 53.75 1.1328125 C54.245 4.1028125 54.245 4.1028125 54.75 7.1328125 C29.34 7.1328125 3.93 7.1328125 -22.25 7.1328125 C-22.25 5.1528125 -22.25 3.1728125 -22.25 1.1328125 C-14.80644046 0.13604861 -7.50439168 -0.01272253 0 0 Z " fill="#070A0C" transform="translate(186.25,251.8671875)"/>
<path d="M0 0 C26.07 0 52.14 0 79 0 C79 1.98 79 3.96 79 6 C52.93 6 26.86 6 0 6 C0 4.02 0 2.04 0 0 Z " fill="#000000" transform="translate(163,224)"/>
<path d="M0 0 C25.41 0 50.82 0 77 0 C77 1.98 77 3.96 77 6 C51.59 6 26.18 6 0 6 C0 4.02 0 2.04 0 0 Z " fill="#000000" transform="translate(178,196)"/>
<path d="M0 0 C24.75 0 49.5 0 75 0 C75 1.98 75 3.96 75 6 C50.25 6 25.5 6 0 6 C0 4.02 0 2.04 0 0 Z " fill="#000000" transform="translate(229,341)"/>
<path d="M0 0 C24.09 0 48.18 0 73 0 C73 1.98 73 3.96 73 6 C48.91 6 24.82 6 0 6 C0 4.02 0 2.04 0 0 Z " fill="#000000" transform="translate(181,282)"/>
<path d="M0 0 C19.47 0 38.94 0 59 0 C58.01 0.99 57.02 1.98 56 3 C53.98944339 2.73775349 51.98821313 2.39764263 50 2 C49.21625 2.165 48.4325 2.33 47.625 2.5 C45.02572612 2.99509979 43.34001864 2.86868593 40.75 2.5 C39.5125 2.335 38.275 2.17 37 2 C36.67 2.33 36.34 2.66 36 3 C32.69687103 3.07279623 29.4047915 2.99609386 26.1015625 2.9375 C22.96356035 2.84711854 22.96356035 2.84711854 20 4 C19.67 3.67 19.34 3.34 19 3 C16.21697443 2.92747816 13.44719465 3.00375315 10.6640625 3.0625 C8 3 8 3 5 2 C3.33637583 1.65179959 1.67004829 1.31595508 0 1 C0 0.67 0 0.34 0 0 Z " fill="#66D7E8" transform="translate(234,348)"/>
<path d="M0 0 C2.97 0 5.94 0 9 0 C8.01 0.495 8.01 0.495 7 1 C7 1.66 7 2.32 7 3 C4.69 2.67 2.38 2.34 0 2 C0 1.34 0 0.68 0 0 Z " fill="#6FB9D2" transform="translate(209,289)"/>
</svg>
